<svg width="48" height="48" viewBox="0 0 48 48" fill="none" xmlns="http://www.w3.org/2000/svg">
<circle cx="24" cy="24" r="24" fill="white"/>
<path d="M30.25 31.5H31.5M24 31.5H25.25M17.75 31.5H19M11.5 34C11.5 34.663 11.7634 35.2989 12.2322 35.7678C12.7011 36.2366 13.337 36.5 14 36.5H34C34.663 36.5 35.2989 36.2366 35.7678 35.7678C36.2366 35.2989 36.5 34.663 36.5 34V19L27.75 25.25V19L19 25.25V14C19 13.337 18.7366 12.7011 18.2678 12.2322C17.7989 11.7634 17.163 11.5 16.5 11.5H14C13.337 11.5 12.7011 11.7634 12.2322 12.2322C11.7634 12.7011 11.5 13.337 11.5 14V34Z" stroke="#BC1C91" stroke-width="2" stroke-linecap="round" stroke-linejoin="round"/>
</svg>
