<svg width="48" height="48" viewBox="0 0 48 48" fill="none" xmlns="http://www.w3.org/2000/svg">
<circle cx="24" cy="24" r="24" fill="white"/>
<path d="M11.5 36.5L29 19M29 19H31.5C32.8261 19 34.0979 18.4732 35.0355 17.5355C35.9732 16.5979 36.5 15.3261 36.5 14V11.5H34C32.6739 11.5 31.4021 12.0268 30.4645 12.9645C29.5268 13.9021 29 15.1739 29 16.5V19ZM17.1625 30.8375C17.9792 30.0175 18.4378 28.9073 18.4378 27.75C18.4378 26.5927 17.9792 25.4825 17.1625 24.6625L15.25 22.75L13.3375 24.6625C12.5207 25.4825 12.0621 26.5927 12.0621 27.75C12.0621 28.9073 12.5207 30.0175 13.3375 30.8375L15.25 32.75M17.1625 30.8375L15.25 32.75M17.1625 30.8375C17.9824 30.0207 19.0927 29.5621 20.25 29.5621C21.4073 29.5621 22.5175 30.0207 23.3375 30.8375L25.25 32.75L23.3375 34.6625C22.5175 35.4792 21.4073 35.9378 20.25 35.9378C19.0927 35.9378 17.9825 35.4792 17.1625 34.6625L15.25 32.75M22.1625 25.8375C22.9792 25.0175 23.4378 23.9073 23.4378 22.75C23.4378 21.5927 22.9792 20.4825 22.1625 19.6625L20.25 17.75L18.3375 19.6625C17.5207 20.4825 17.0621 21.5927 17.0621 22.75C17.0621 23.9073 17.5207 25.0175 18.3375 25.8375L20.25 27.75M22.1625 25.8375L20.25 27.75M22.1625 25.8375C22.9824 25.0207 24.0927 24.5621 25.25 24.5621C26.4073 24.5621 27.5175 25.0207 28.3375 25.8375L30.25 27.75L28.3375 29.6625C27.5175 30.4792 26.4073 30.9378 25.25 30.9378C24.0927 30.9378 22.9825 30.4792 22.1625 29.6625L20.25 27.75M27.1625 20.8375C27.9792 20.0175 28.4378 18.9073 28.4378 17.75C28.4378 16.5927 27.9792 15.4825 27.1625 14.6625L25.25 12.75L23.3375 14.6625C22.5207 15.4825 22.0621 16.5927 22.0621 17.75C22.0621 18.9073 22.5207 20.0175 23.3375 20.8375L25.25 22.75M27.1625 20.8375L25.25 22.75M27.1625 20.8375C27.9824 20.0207 29.0927 19.5621 30.25 19.5621C31.4073 19.5621 32.5175 20.0207 33.3375 20.8375L35.25 22.75L33.3375 24.6625C32.5175 25.4792 31.4073 25.9378 30.25 25.9378C29.0927 25.9378 27.9825 25.4792 27.1625 24.6625L25.25 22.75" stroke="#BC1C91" stroke-width="2" stroke-linecap="round" stroke-linejoin="round"/>
</svg>
