<svg width="48" height="48" viewBox="0 0 48 48" fill="none" xmlns="http://www.w3.org/2000/svg">
<circle cx="24" cy="24" r="24" fill="white"/>
<path d="M20.25 24H20.2625M27.75 24H27.7625M21.5 29C22.125 29.375 23 29.625 24 29.625C25 29.625 25.875 29.375 26.5 29M32.75 16.875C33.8825 18.2946 34.6544 19.9672 35 21.75C35.4227 21.9547 35.7791 22.2743 36.0286 22.6723C36.278 23.0702 36.4103 23.5304 36.4103 24C36.4103 24.4696 36.278 24.9298 36.0286 25.3277C35.7791 25.7257 35.4227 26.0453 35 26.25C34.4604 28.7669 33.074 31.0225 31.0721 32.6407C29.0703 34.2588 26.574 35.1415 24 35.1415C21.4259 35.1415 18.9297 34.2588 16.9279 32.6407C14.926 31.0225 13.5396 28.7669 13 26.25C12.5773 26.0453 12.2209 25.7257 11.9714 25.3277C11.722 24.9298 11.5897 24.4696 11.5897 24C11.5897 23.5304 11.722 23.0702 11.9714 22.6723C12.2209 22.2743 12.5773 21.9547 13 21.75C13.5178 19.2131 14.8949 16.9325 16.8988 15.293C18.9027 13.6534 21.4108 12.7552 24 12.75C26.5 12.75 28.375 14.125 28.375 15.875C28.375 17.625 27.25 19 25.875 19C24.875 19 24 18.5 24 17.75" stroke="#BC1C91" stroke-width="2" stroke-linecap="round" stroke-linejoin="round"/>
</svg>
