<svg width="48" height="48" viewBox="0 0 48 48" fill="none" xmlns="http://www.w3.org/2000/svg">
<circle cx="24" cy="24" r="24" fill="white"/>
<path d="M20.25 36.5V31.5H27.75V36.5M19 16.5H19.0125M29 16.5H29.0125M24 16.5H24.0125M24 21.5H24.0125M24 26.5H24.0125M29 21.5H29.0125M29 26.5H29.0125M19 21.5H19.0125M19 26.5H19.0125M16.5 11.5H31.5C32.8807 11.5 34 12.6193 34 14V34C34 35.3807 32.8807 36.5 31.5 36.5H16.5C15.1193 36.5 14 35.3807 14 34V14C14 12.6193 15.1193 11.5 16.5 11.5Z" stroke="#BC1C91" stroke-width="2" stroke-linecap="round" stroke-linejoin="round"/>
</svg>
